<?xml version="1.0" encoding="iso-8859-1"?>
<!-- Generator: Adobe Illustrator 19.0.0, SVG Export Plug-In . SVG Version: 6.00 Build 0)  -->
<svg version="1.1" id="Capa_1" xmlns="http://www.w3.org/2000/svg" xmlns:xlink="http://www.w3.org/1999/xlink" x="0px" y="0px"
	 viewBox="0 0 512 512" style="enable-background:new 0 0 512 512;" xml:space="preserve">
<circle style="fill:#2B72A3;" cx="256" cy="256" r="256"/>
<circle style="fill:#2F7BA5;" cx="256" cy="256" r="181.802"/>
<g>
	<path style="fill:#F2634A;" d="M408.974,54.038L408.974,54.038c-0.946,0.35-1.573,1.236-1.619,2.243
		c-1.363,30.017-20.292,57.745-50.241,68.838s-55.718-34.817-82.962-19.501c-0.879,0.494-137.664,123.114-190.161,154.751
		c-33.046,19.915-53.794,48.565-41.871,80.756l2.83,7.64c4.925,13.295,19.694,20.081,32.99,15.156l392.03-145.204
		c13.295-4.925,20.081-19.694,15.156-32.99L441.964,69.195C437.039,55.9,422.269,49.114,408.974,54.038z"/>
	<path style="fill:#F2634A;" d="M280.808,150.059l-15.102-5.234c-8.977-3.112-13.775-13.001-10.664-21.977l21.684-62.563
		c3.111-8.977,13.001-13.775,21.977-10.664l15.102,5.234c8.977,3.112,13.775,13.001,10.664,21.977l-21.684,62.563
		C299.674,148.371,289.784,153.171,280.808,150.059z"/>
</g>
<g>
	<path style="fill:#F47D36;" d="M424.254,199.587c13.994-45.103-17.028-141.29-17.028-141.29
		c-2.099,29.235-20.835,55.978-50.112,66.822c-29.949,11.093-55.718-34.817-82.962-19.501
		c-0.879,0.494-137.664,123.114-190.161,154.751c-33.046,19.915-53.794,48.565-41.871,80.756l2.83,7.64
		c3.653,9.863,12.726,16.129,22.593,16.705L402.613,238.55C415.908,233.626,419.071,216.291,424.254,199.587z"/>
	<path style="fill:#F47D36;" d="M274.153,105.618c-0.879,0.494-137.664,123.114-190.161,154.751
		c-33.046,19.915-53.794,48.565-41.871,80.756"/>
</g>
<g>
	<path style="fill:#EE4042;" d="M255.227,294.378l23.601-8.94l-90.333-105.727c-6.018,5.066-12.121,10.166-18.232,15.224
		L255.227,294.378z"/>
	<path style="fill:#EE4042;" d="M300.438,277.252l23.601-8.94l-100.924-118.12c-5.749,4.958-11.792,10.144-18.03,15.461
		L300.438,277.252z"/>
	<path style="fill:#EE4042;" d="M239.552,135.95L345.65,260.127l23.601-8.94l-111.82-130.875
		C252.361,124.766,246.323,130.055,239.552,135.95z"/>
</g>
<path style="fill:#F6895C;" d="M69.408,270.383l26.304,30.609c0,0,160.6-121.981,221.553-185.616
	c-14.522-8.712-28.608-17.913-43.112-9.758c-0.879,0.494-137.664,123.114-190.161,154.751
	C78.801,263.498,73.914,266.843,69.408,270.383z"/>
<path style="fill:#FFF8EE;" d="M42.122,341.126l2.83,7.64c3.653,9.863,12.726,16.129,22.593,16.705l114.872-43.513
	c-26.087-22.419-48.2-55.65-64.567-85.214c-13.06,9.876-24.733,18.127-33.857,23.625C50.946,280.284,30.199,308.935,42.122,341.126z
	"/>
<path style="fill:#FEE9AB;" d="M495.606,216.386L59.802,377.805c-5.126,1.899-10.894-0.8-12.82-5.997l0,0
	c-1.925-5.197,0.694-11.002,5.82-12.9c0,0,316.59-148.152,424.305-192.465c5.055-2.079,22.394,31.846,24.319,37.043l0,0
	C503.35,208.682,500.732,214.487,495.606,216.386z"/>
<path style="fill:#FFEFCC;" d="M46.589,370.418L456.51,218.587c5.126-1.899,7.745-7.704,5.82-12.9l0,0
	c-1.174-3.172-8.092-17.041-14.454-26.9c-126.6,54.484-395.074,180.119-395.074,180.119
	C48.129,360.637,45.552,365.615,46.589,370.418z"/>
<g>
	<path style="fill:#FFFFFF;" d="M152.706,228.685L152.706,228.685c-3.131,2.582-7.803,2.133-10.385-0.998l-12.592-15.27
		c-2.582-3.131-2.133-7.803,0.998-10.385l0,0c3.131-2.582,7.803-2.133,10.385,0.998l12.593,15.27
		C156.285,221.431,155.836,226.104,152.706,228.685z"/>
	<path style="fill:#FFFFFF;" d="M182.32,204.264L182.32,204.264c-3.131,2.582-7.803,2.133-10.385-0.998l-12.592-15.27
		c-2.582-3.131-2.133-7.803,0.998-10.385l0,0c3.131-2.582,7.803-2.133,10.385,0.998l12.592,15.27
		C185.9,197.009,185.451,201.683,182.32,204.264z"/>
	<path style="fill:#FFFFFF;" d="M211.936,179.843L211.936,179.843c-3.131,2.582-7.803,2.133-10.385-0.998l-12.592-15.27
		c-2.582-3.131-2.133-7.803,0.998-10.385l0,0c3.131-2.582,7.803-2.133,10.385,0.998l12.592,15.27
		C215.514,172.588,215.065,177.261,211.936,179.843z"/>
	<path style="fill:#FFFFFF;" d="M241.55,155.421L241.55,155.421c-3.131,2.582-7.803,2.133-10.385-0.998l-12.592-15.27
		c-2.582-3.131-2.133-7.803,0.998-10.385l0,0c3.131-2.582,7.803-2.133,10.385,0.998l12.592,15.27
		C245.129,148.167,244.68,152.839,241.55,155.421z"/>
</g>
<g>
</g>
<g>
</g>
<g>
</g>
<g>
</g>
<g>
</g>
<g>
</g>
<g>
</g>
<g>
</g>
<g>
</g>
<g>
</g>
<g>
</g>
<g>
</g>
<g>
</g>
<g>
</g>
<g>
</g>
</svg>
